<svg width="20" height="20" viewBox="0 0 20 20" fill="none" xmlns="http://www.w3.org/2000/svg">
<mask id="mask0" mask-type="alpha" maskUnits="userSpaceOnUse" x="0" y="0" width="20" height="20">
<circle cx="10" cy="10" r="10" fill="#E8ECF0"/>
</mask>
<g mask="url(#mask0)">
<circle cx="10" cy="10" r="10" fill="#FF8615"/>
<path d="M12.9417 14.5443C12.5054 14.5443 12.1094 14.3068 11.8827 13.9089C11.7976 13.7596 11.6152 13.7122 11.4755 13.8032C11.3358 13.8942 11.2915 14.0891 11.3766 14.2384C11.5343 14.5151 11.7478 14.7385 11.9963 14.8984L11.6893 16.3878L10.9489 15.4767C11.0833 15.3115 11.0509 15.1186 10.9351 15.011C10.8117 14.8963 10.6245 14.9102 10.5171 15.0422L9.99615 15.6825L8.68385 14.1241C8.79552 13.8949 8.86322 13.6433 8.88256 13.3811C11.4223 14.1802 13.963 12.1315 13.963 9.31744V6.7C13.963 6.52512 13.8303 6.38333 13.6667 6.38333C13.503 6.38333 13.3704 6.52512 13.3704 6.7V9.31744C13.3704 11.3036 11.8584 12.9195 10 12.9195C8.14156 12.9195 6.62963 11.3037 6.62963 9.31744V6.63001C7.35196 6.58619 7.96637 6.1015 8.18533 5.22306C9.41904 6.06746 10.8019 6.61454 12.2532 6.83165C12.4159 6.85588 12.5651 6.73463 12.5877 6.56193C12.6104 6.38875 12.4974 6.22868 12.3354 6.20441C10.8576 5.98334 9.41552 5.39224 8.13415 4.42277C7.93826 4.27449 7.66548 4.42534 7.66667 4.68327C7.6667 4.69114 7.66393 5.47652 7.10652 5.8349C6.75404 6.06156 6.39752 5.98837 6.33618 5.98765C6.18474 5.98611 6.05641 6.10755 6.03915 6.26775C6.03589 6.29838 6.03704 6.19408 6.03704 8.80171C5.83911 8.69199 5.7037 8.47365 5.7037 8.22237V4.36458C5.7037 3.94987 6.01937 3.6125 6.40741 3.6125C6.52856 3.6125 6.63752 3.53365 6.68252 3.41343C7.08726 2.33206 8.05289 1.63333 9.14267 1.63333H11.6837C13.1447 1.63333 14.3333 2.90368 14.3333 4.46516V8.22237C14.3333 8.39725 14.466 8.53904 14.6296 8.53904C14.7933 8.53904 14.9259 8.39725 14.9259 8.22237V4.46516C14.9259 2.55448 13.4715 1 11.6837 1H9.14267C7.87156 1 6.73833 1.77702 6.20619 2.99583C5.58663 3.0995 5.11111 3.67381 5.11111 4.36458V8.22237C5.11111 8.82819 5.5077 9.33735 6.04004 9.47403C6.09533 11.0914 7.003 12.4801 8.2963 13.141V13.2245C8.2963 13.5773 8.16756 13.9088 7.93381 14.1579C7.51926 14.5997 6.99685 14.5443 7.05819 14.5443C5.36796 14.5443 4 16.0061 4 17.8127V19.6833C4 19.8582 4.13267 20 4.2963 20C4.45993 20 4.59259 19.8582 4.59259 19.6833V17.8127C4.59259 16.3563 5.69537 15.1776 7.05826 15.1776C7.18793 15.1776 7.31737 15.1629 7.44537 15.1337L7.85881 17.1389C7.91115 17.3929 8.21256 17.4745 8.37189 17.2784L8.95563 16.5601L8.59493 19.6441C8.57463 19.8176 8.68985 19.9758 8.85219 19.9975C9.01485 20.0192 9.16267 19.8959 9.18296 19.7226L9.59981 16.1585C9.61867 16.1808 9.78337 16.3782 9.80448 16.3981C9.92678 16.5129 10.1131 16.5012 10.2218 16.3702C10.2804 16.2985 10.1289 16.4846 10.3995 16.152L10.8171 19.7225C10.8374 19.8958 10.9851 20.0192 11.1479 19.9975C11.3103 19.9758 11.4254 19.8175 11.4051 19.644L11.0444 16.56L11.6282 17.2784C11.7877 17.4748 12.089 17.3924 12.1413 17.1389L12.5547 15.1335C12.6802 15.162 12.8096 15.1776 12.9418 15.1776C14.3045 15.1776 15.4074 16.3561 15.4074 17.8127V19.6833C15.4074 19.8582 15.5401 20 15.7037 20C15.8673 20 16 19.8582 16 19.6833V17.8127C16 16.0063 14.6322 14.5442 12.9417 14.5443ZM8.31074 16.3878L8.00359 14.8979C8.11656 14.825 8.22252 14.7382 8.32019 14.6389L9.03856 15.492L8.31074 16.3878Z" fill="white"/>
</g>
</svg>
