<svg width="20" height="20" viewBox="0 0 20 20" fill="none" xmlns="http://www.w3.org/2000/svg">
<mask id="mask0" mask-type="alpha" maskUnits="userSpaceOnUse" x="0" y="0" width="20" height="20">
<circle cx="10" cy="10" r="10" fill="#E8ECF0"/>
</mask>
<g mask="url(#mask0)">
<circle cx="10" cy="10" r="10" fill="#FF8615"/>
<path d="M17.1562 5.56241H16.8671V4.7604C16.8669 4.48203 16.7779 4.21513 16.6197 4.01829C16.4616 3.82145 16.2471 3.71074 16.0234 3.71045H15.1171C14.8934 3.71078 14.679 3.82151 14.5208 4.01835C14.3627 4.21518 14.2737 4.48205 14.2735 4.7604V7.48251H11.9414V7.39602C11.9431 7.14719 11.8711 6.90629 11.739 6.71943C11.607 6.53256 11.4242 6.41287 11.2256 6.38325C11.1154 6.37027 11.0042 6.38595 10.8991 6.4293C10.794 6.47266 10.6973 6.54273 10.6151 6.63508C10.601 6.65115 10.5874 6.66774 10.5742 6.68485C10.5612 6.66774 10.5475 6.65115 10.5334 6.63508C10.4513 6.5425 10.3546 6.47228 10.2494 6.42892C10.1443 6.38555 10.033 6.36999 9.92275 6.38325C9.73352 6.4074 9.55806 6.51743 9.42987 6.69232C9.35634 6.59381 9.26734 6.51513 9.16839 6.46116C9.06943 6.40719 8.96262 6.37908 8.85457 6.37857C8.74653 6.37806 8.63955 6.40516 8.54026 6.45819C8.44098 6.51122 8.3515 6.58906 8.27737 6.68688C8.1684 6.54347 8.02734 6.44409 7.87245 6.40161C7.71756 6.35912 7.55599 6.3755 7.40867 6.44861C7.26135 6.52171 7.13506 6.64819 7.04617 6.81165C6.95728 6.97511 6.90989 7.16801 6.91012 7.36538V7.48251H5.72662V4.7604C5.72636 4.48204 5.63738 4.21517 5.4792 4.01834C5.32103 3.8215 5.10657 3.71078 4.88287 3.71045H3.97662C3.75292 3.71074 3.53844 3.82145 3.38026 4.01829C3.22208 4.21513 3.13311 4.48203 3.13287 4.7604V5.56241H2.84375C2.62005 5.56274 2.4056 5.67347 2.24742 5.8703C2.08924 6.06714 2.00026 6.334 2 6.61237V11.2109C2.00026 11.4892 2.08924 11.7561 2.24742 11.9529C2.4056 12.1498 2.62005 12.2605 2.84375 12.2608H3.13287V13.0628C3.13311 13.3412 3.22208 13.6081 3.38026 13.8049C3.53844 14.0018 3.75292 14.1125 3.97662 14.1128H4.88287C5.10657 14.1125 5.32103 14.0017 5.4792 13.8049C5.63738 13.6081 5.72636 13.3412 5.72662 13.0628V10.3407H6.9125C6.9125 10.3466 6.9125 10.3527 6.91325 10.3586C6.91165 10.3703 6.91069 10.3822 6.91037 10.3941V11.514C6.91064 12.0097 7.0116 12.4972 7.20387 12.9312L8.05887 14.8585V20.6211C8.05887 20.6933 8.08192 20.7625 8.12294 20.8136C8.16397 20.8646 8.21961 20.8933 8.27762 20.8933H11.7226C11.7806 20.8933 11.8363 20.8646 11.8773 20.8136C11.9183 20.7625 11.9414 20.6933 11.9414 20.6211V14.8737L12.8375 13.2663C13.0022 12.9716 13.0904 12.6212 13.09 12.2622V10.3403H14.2736V13.0624C14.2739 13.3407 14.3628 13.6076 14.521 13.8044C14.6791 14.0013 14.8936 14.112 15.1172 14.1123H16.0235C16.2472 14.112 16.4617 14.0013 16.6199 13.8045C16.778 13.6076 16.867 13.3407 16.8672 13.0624V12.2608H17.1564C17.3801 12.2605 17.5945 12.1498 17.7527 11.9529C17.9109 11.7561 17.9999 11.4892 18.0001 11.2109V6.61237C17.9999 6.33398 17.9109 6.06709 17.7527 5.87025C17.5945 5.67341 17.38 5.5627 17.1562 5.56241ZM10.793 7.36585C10.793 7.30402 10.8034 7.24289 10.8236 7.18638C10.8437 7.12987 10.8732 7.07924 10.91 7.03777C10.9468 6.99629 10.9903 6.96488 11.0374 6.94557C11.0846 6.92626 11.1346 6.91947 11.184 6.92564C11.2745 6.94154 11.3571 6.99832 11.4161 7.08516C11.4751 7.172 11.5063 7.28282 11.5039 7.39649V7.48298H10.7717C10.7858 7.44641 10.7931 7.40638 10.793 7.36585ZM9.96437 6.92564C9.97625 6.92424 9.98825 6.92347 10 6.92347C10.0943 6.92351 10.1847 6.97013 10.2513 7.05308C10.318 7.13604 10.3555 7.24853 10.3555 7.36585C10.3554 7.40638 10.3627 7.44641 10.3767 7.48298H10C9.87655 7.48314 9.75484 7.51909 9.6445 7.58797V7.39649C9.64204 7.28282 9.67328 7.172 9.73228 7.08516C9.79127 6.99832 9.87389 6.94154 9.96437 6.92564ZM10.3555 10.2875C10.3555 10.4048 10.318 10.5174 10.2514 10.6003C10.1847 10.6833 10.0943 10.7299 10 10.7299C9.90571 10.7299 9.81529 10.6833 9.74862 10.6003C9.68195 10.5174 9.6445 10.4048 9.6445 10.2875V9.34194C9.76207 9.41724 9.89239 9.45654 10.0246 9.45658H10.3555V10.2875ZM8.85162 6.92347C8.94586 6.92363 9.03619 6.9703 9.10281 7.05323C9.16943 7.13616 9.2069 7.24859 9.207 7.36585V10.2875C9.20788 10.3463 9.19935 10.4047 9.18188 10.4593C9.16442 10.514 9.13838 10.5637 9.10528 10.6057C9.07219 10.6476 9.03271 10.681 8.98914 10.7037C8.94558 10.7265 8.89881 10.7382 8.85156 10.7382C8.80432 10.7382 8.75754 10.7265 8.71398 10.7037C8.67041 10.681 8.63093 10.6476 8.59784 10.6057C8.56475 10.5637 8.53871 10.514 8.52124 10.4593C8.50378 10.4047 8.49524 10.3463 8.49612 10.2875V7.36585C8.49622 7.24856 8.53371 7.13611 8.60036 7.05317C8.667 6.97024 8.75737 6.92359 8.85162 6.92347ZM7.34762 7.36585C7.34762 7.24852 7.38508 7.136 7.45175 7.05304C7.51842 6.97007 7.60884 6.92347 7.70312 6.92347C7.79741 6.92347 7.88783 6.97007 7.9545 7.05304C8.02117 7.136 8.05862 7.24852 8.05862 7.36585V10.2875C8.05862 10.4048 8.02117 10.5174 7.9545 10.6003C7.88783 10.6833 7.79741 10.7299 7.70312 10.7299C7.60884 10.7299 7.51842 10.6833 7.45175 10.6003C7.38508 10.5174 7.34762 10.4048 7.34762 10.2875V7.36585ZM2.84375 11.7164C2.73605 11.7162 2.63279 11.6629 2.55663 11.5681C2.48048 11.4734 2.43763 11.3449 2.4375 11.2109V6.61237C2.43763 6.47834 2.48048 6.34985 2.55663 6.25508C2.63279 6.16031 2.73605 6.107 2.84375 6.10684H3.13287V11.7164H2.84375ZM5.28912 13.0628C5.28899 13.1969 5.24615 13.3253 5.16999 13.4201C5.09383 13.5149 4.99058 13.5682 4.88287 13.5684H3.97662C3.86891 13.5682 3.76564 13.5149 3.68947 13.4202C3.61331 13.3254 3.57047 13.1969 3.57037 13.0628V4.7604C3.57047 4.62637 3.61331 4.49785 3.68947 4.40307C3.76564 4.30829 3.86891 4.25499 3.97662 4.25487H4.88287C4.99058 4.25503 5.09383 4.30835 5.16999 4.40312C5.24615 4.49789 5.28899 4.62638 5.28912 4.7604V13.0628ZM5.72662 8.0274H6.91012V9.79583H5.72662V8.0274ZM12.6524 12.2627C12.6525 12.5108 12.5914 12.7529 12.4774 12.9564L11.5424 14.6332C11.5169 14.6789 11.5033 14.7332 11.5034 14.7888V20.3492H8.49612V14.7885C8.49613 14.7425 8.48675 14.6972 8.46887 14.6569L7.58662 12.6682C7.43005 12.3147 7.34783 11.9177 7.34762 11.514V11.1682C7.49935 11.264 7.67194 11.2961 7.83954 11.2597C8.00714 11.2232 8.16075 11.1202 8.27737 10.966C8.35115 11.0634 8.44014 11.1409 8.53888 11.194C8.63762 11.247 8.74402 11.2743 8.85156 11.2743C8.9591 11.2743 9.0655 11.247 9.16424 11.194C9.26298 11.1409 9.35197 11.0634 9.42575 10.966C9.49954 11.0634 9.58854 11.141 9.68729 11.194C9.78604 11.247 9.89245 11.2743 10 11.2743C10.1075 11.2743 10.214 11.247 10.3127 11.194C10.4115 11.141 10.5005 11.0634 10.5742 10.966C10.6832 11.1094 10.8243 11.2087 10.9791 11.2512C11.134 11.2936 11.2956 11.2772 11.4429 11.2041C11.5901 11.131 11.7164 11.0046 11.8053 10.8411C11.8942 10.6777 11.9416 10.4849 11.9414 10.2875V9.18437C11.9414 9.11217 11.9183 9.04294 11.8773 8.99189C11.8363 8.94084 11.7806 8.91216 11.7226 8.91216H10.025C9.93365 8.91522 9.84459 8.87634 9.77481 8.80293C9.70502 8.72951 9.65939 8.62671 9.64662 8.51411C9.6455 8.50027 9.645 8.48642 9.64487 8.47273V8.46682C9.64553 8.3501 9.68322 8.23843 9.74974 8.15613C9.81625 8.07383 9.9062 8.02756 10 8.0274H11.6742L11.7135 8.03035H11.716C11.9677 8.04385 12.2055 8.17765 12.38 8.40388C12.5544 8.63012 12.652 8.93136 12.6524 9.24488V12.2625V12.2627ZM10.793 9.45658H11.5039V10.2875C11.5048 10.3463 11.4962 10.4047 11.4788 10.4593C11.4613 10.514 11.4353 10.5637 11.4022 10.6057C11.3691 10.6476 11.3296 10.681 11.286 10.7037C11.2425 10.7265 11.1957 10.7382 11.1484 10.7382C11.1012 10.7382 11.0544 10.7265 11.0109 10.7037C10.9673 10.681 10.9278 10.6476 10.8947 10.6057C10.8616 10.5637 10.8356 10.514 10.8181 10.4593C10.8007 10.4047 10.7921 10.3463 10.793 10.2875V9.45658ZM13.0899 9.79583V9.24457C13.0901 8.79088 12.9492 8.35468 12.6967 8.0274H14.2735V9.79583H13.0899ZM16.4296 13.0624C16.4295 13.1964 16.3866 13.3249 16.3105 13.4196C16.2343 13.5144 16.1311 13.5677 16.0234 13.5679H15.1171C15.0094 13.5677 14.9062 13.5144 14.83 13.4196C14.7538 13.3249 14.711 13.1964 14.7109 13.0624V4.7604C14.711 4.62638 14.7538 4.49789 14.83 4.40312C14.9062 4.30835 15.0094 4.25503 15.1171 4.25487H16.0234C16.1311 4.25503 16.2343 4.30835 16.3105 4.40312C16.3866 4.49789 16.4295 4.62638 16.4296 4.7604V13.0628V13.0624ZM17.5625 11.2109C17.5624 11.3449 17.5195 11.4734 17.4434 11.5681C17.3672 11.6629 17.264 11.7162 17.1562 11.7164H16.8671V6.10684H17.1562C17.264 6.107 17.3672 6.16031 17.4434 6.25508C17.5195 6.34985 17.5624 6.47834 17.5625 6.61237V11.2109Z" fill="white"/>
</g>
</svg>
