<svg width="20" height="20" viewBox="0 0 20 20" fill="none" xmlns="http://www.w3.org/2000/svg">
<mask id="mask0" mask-type="alpha" maskUnits="userSpaceOnUse" x="0" y="0" width="20" height="20">
<circle cx="10" cy="10" r="10" fill="#E8ECF0"/>
</mask>
<g mask="url(#mask0)">
<circle cx="10" cy="10" r="10" fill="#FF8615"/>
<path d="M15.6526 18.0824V19.7224C15.6526 19.8757 15.5257 20 15.3692 20C15.2128 20 15.0859 19.8757 15.0859 19.7224V18.0824C15.0859 16.8055 14.0314 15.7721 12.7281 15.7721C12.1115 15.7721 11.552 15.4643 11.2315 14.9487C11.1501 14.8177 11.1924 14.6469 11.326 14.5672C11.4596 14.4873 11.634 14.5289 11.7154 14.6598C11.9323 15.0086 12.3108 15.2168 12.7281 15.2168C14.3444 15.2168 15.6526 16.4984 15.6526 18.0824ZM10.9255 15.9326L9.91508 16.6991L8.19708 15.3958C8.56793 15.1039 8.80774 14.6793 8.84659 14.1971C9.18563 14.2949 9.54419 14.3476 9.91511 14.3476C12.0047 14.3476 13.7047 12.6818 13.7047 10.6343C13.7047 10.6128 13.7052 8.69052 13.7038 8.66901C13.6941 8.51881 13.5663 8.40897 13.4214 8.40897C13.3728 8.40897 13.0237 8.47664 12.682 8.27519C12.1491 7.96102 12.1463 7.27236 12.1464 7.26545C12.1477 7.03988 11.8874 6.90676 11.6993 7.03714C10.5323 7.84667 9.16577 8.39561 7.68191 8.59915C7.52697 8.62042 7.41891 8.76073 7.44062 8.91259C7.46045 9.0514 7.58179 9.15177 7.72087 9.15177C7.7655 9.15177 8.68421 9.04158 9.72854 8.66991C10.4014 8.43045 11.0461 8.11798 11.6505 7.73871C11.8594 8.50656 12.4451 8.93372 13.1381 8.97228V10.6343C13.1381 12.3757 11.6923 13.7924 9.91515 13.7924C8.13801 13.7924 6.69223 12.3757 6.69223 10.6343V8.68664C6.69223 8.53331 6.56537 8.40901 6.4089 8.40901C6.25243 8.40901 6.12556 8.53331 6.12556 8.68664V10.6344C6.12556 12.1107 7.00949 13.3885 8.28598 13.9866V14.0598C8.28598 14.6998 7.75671 15.2168 7.10211 15.2168C6.74365 15.2168 6.39048 15.2804 6.05639 15.4055L5.87347 15.2629C4.43799 14.1434 4.16915 12.1671 5.1481 10.7272C5.56531 10.1135 5.80681 9.37953 5.80681 8.59422V7.09041C5.80681 5.32986 7.26849 3.89754 9.06515 3.89754H10.7651C12.5618 3.89754 14.0235 5.32979 14.0235 7.09027V8.59408C14.0235 9.35794 14.2502 10.094 14.6791 10.7227C15.4635 11.8724 15.4619 13.3814 14.6514 14.5339C14.5626 14.6601 14.5951 14.833 14.7239 14.92C14.8528 15.007 15.0292 14.9752 15.118 14.8489C16.0615 13.5075 16.0626 11.7515 15.1502 10.4141C14.7838 9.87704 14.5901 9.24772 14.5901 8.59408V7.09027C14.5901 5.02364 12.8742 3.34229 10.7651 3.34229H9.06511C6.95601 3.34229 5.24011 5.02371 5.24011 7.09041V8.59408C5.24011 9.24581 5.04521 9.87697 4.67642 10.4194C3.53405 12.0998 3.8578 14.3852 5.50258 15.6829C4.69459 16.2023 4.17761 17.0843 4.17761 18.0824V19.7224C4.17761 19.8757 4.30447 20 4.46094 20C4.61741 20 4.74428 19.8757 4.74428 19.7224V18.0824C4.74428 16.8055 5.79881 15.7721 7.10207 15.7721C7.28985 15.7721 7.47536 15.7429 7.65326 15.6854L9.74164 17.2697C9.84378 17.3472 9.98644 17.3472 10.0885 17.2697L11.2724 16.3716C11.3962 16.2777 11.4188 16.1034 11.323 15.9821C11.2272 15.8609 11.0493 15.8387 10.9255 15.9326Z" fill="white"/>
</g>
</svg>
