<svg width="20" height="20" viewBox="0 0 20 20" fill="none" xmlns="http://www.w3.org/2000/svg">
<mask id="mask0" mask-type="alpha" maskUnits="userSpaceOnUse" x="0" y="0" width="20" height="20">
<circle cx="10" cy="10" r="10" fill="#E8ECF0"/>
</mask>
<g mask="url(#mask0)">
<circle cx="10" cy="10" r="10" fill="#FF8615"/>
<path d="M13.8 2.80664H6.33333C5.59733 2.80768 5.00087 3.52319 5 4.40609V20.4006C5.00087 21.2834 5.59733 21.999 6.33333 22H13.8C14.536 21.999 15.1325 21.2834 15.1333 20.4006V4.40609C15.1325 3.52319 14.536 2.80768 13.8 2.80664ZM14.6 20.4006C14.6 20.9306 14.2418 21.3602 13.8 21.3602H6.33333C5.8915 21.3602 5.53333 20.9306 5.53333 20.4006V20.0807H14.6V20.4006ZM14.6 19.4409H5.53333V5.36576H14.6V19.4409ZM14.6 4.72598H5.53333V4.40609C5.53333 3.87607 5.8915 3.44642 6.33333 3.44642H13.8C14.2418 3.44642 14.6 3.87607 14.6 4.40609V4.72598Z" fill="white"/>
<path d="M9.53335 3.76611H9.00001C8.85274 3.76611 8.73334 3.90914 8.73334 4.08555C8.73334 4.26197 8.85274 4.405 9.00001 4.405H9.53335C9.68062 4.405 9.80002 4.26197 9.80002 4.08555C9.80002 3.90914 9.68062 3.76611 9.53335 3.76611Z" fill="white"/>
<path d="M11.4 3.76611H10.3333C10.1861 3.76611 10.0667 3.90914 10.0667 4.08555C10.0667 4.26197 10.1861 4.405 10.3333 4.405H11.4C11.5473 4.405 11.6667 4.26197 11.6667 4.08555C11.6667 3.90914 11.5473 3.76611 11.4 3.76611Z" fill="white"/>
</g>
</svg>
