<svg width="20" height="20" viewBox="0 0 20 20" fill="none" xmlns="http://www.w3.org/2000/svg">
<mask id="mask0" mask-type="alpha" maskUnits="userSpaceOnUse" x="0" y="0" width="20" height="20">
<circle cx="10" cy="10" r="10" fill="#E8ECF0"/>
</mask>
<g mask="url(#mask0)">
<circle cx="10" cy="10" r="10" fill="#FF8615"/>
<path d="M18.9992 17.8831C18.999 17.8798 18.999 17.8766 18.9988 17.8733C18.9978 17.8603 18.9963 17.8476 18.9942 17.8351C18.994 17.8339 18.9936 17.8327 18.9934 17.8315C18.9913 17.82 18.9888 17.8088 18.9857 17.7979C18.9849 17.7949 18.984 17.7921 18.9832 17.7892C18.9802 17.7793 18.9769 17.7696 18.9732 17.7602C18.9725 17.7585 18.9721 17.7568 18.9715 17.7552L17.5613 14.2939V2.90618C17.5613 2.55593 17.3323 2.271 17.0508 2.271H2.9491C2.66764 2.271 2.43866 2.55593 2.43866 2.90618V14.2938L1.02851 17.7551C1.02784 17.7568 1.02742 17.7585 1.02679 17.7601C1.0231 17.7696 1.01979 17.7792 1.0168 17.7891C1.01593 17.792 1.01505 17.7949 1.01424 17.7978C1.01125 17.8088 1.00865 17.82 1.00657 17.8315C1.00636 17.8327 1.00605 17.8339 1.00584 17.835C1.00369 17.8476 1.00218 17.8603 1.00123 17.8733C1.00098 17.8765 1.00098 17.8798 1.00084 17.883C1.00049 17.8899 1 17.8966 1 17.9035V18.7359C1 19.1519 1.27193 19.4903 1.60623 19.4903H18.3938C18.7281 19.4903 19 19.1519 19 18.7359V17.9035C19 17.8966 18.9995 17.8899 18.9992 17.8831ZM2.96604 2.92731H17.034V14.0442H2.96604V2.92731ZM2.8643 14.7003H17.1357L18.307 17.5754H12.514L12.2232 16.2634C12.164 15.9963 11.9672 15.8098 11.7445 15.8098H8.25541C8.03276 15.8098 7.83592 15.9963 7.77675 16.2633L7.48598 17.5754H1.69296L2.8643 14.7003ZM11.9669 17.5754H8.03308L8.27893 16.466H11.7211L11.9669 17.5754ZM18.4727 18.7358C18.4727 18.7899 18.4373 18.834 18.3938 18.834H1.60623C1.56275 18.834 1.52734 18.7899 1.52734 18.7358V18.2316H18.4727V18.7358Z" fill="white"/>
<path d="M16.2078 9.03223C16.0622 9.03223 15.9441 9.17909 15.9441 9.36034V12.6876H4.05591V9.36034C4.05591 9.17909 3.93789 9.03223 3.79224 9.03223C3.64658 9.03223 3.52856 9.17909 3.52856 9.36034V12.8293C3.52856 13.113 3.71401 13.3438 3.94204 13.3438H16.0581C16.286 13.3438 16.4715 13.1131 16.4715 12.8293V9.36034C16.4715 9.17918 16.3535 9.03223 16.2078 9.03223Z" fill="white"/>
<path d="M16.058 3.62695H3.94204C3.71405 3.62695 3.52856 3.85773 3.52856 4.14148V7.61046C3.52856 7.79171 3.64658 7.93857 3.79224 7.93857C3.93789 7.93857 4.05591 7.79171 4.05591 7.61046V4.28318H15.9441V7.61046C15.9441 7.79171 16.0621 7.93857 16.2078 7.93857C16.3534 7.93857 16.4715 7.79171 16.4715 7.61046V4.14148C16.4715 3.85768 16.286 3.62695 16.058 3.62695Z" fill="white"/>
</g>
</svg>
