<svg width="20" height="20" viewBox="0 0 20 20" fill="none" xmlns="http://www.w3.org/2000/svg">
<mask id="mask0" mask-type="alpha" maskUnits="userSpaceOnUse" x="0" y="0" width="20" height="20">
<circle cx="10" cy="10" r="10" fill="#E8ECF0"/>
</mask>
<g mask="url(#mask0)">
<circle cx="10" cy="10" r="10" fill="#FF8615"/>
<path d="M7.45483 17.9632C7.60195 17.9632 7.74576 17.9178 7.86809 17.8326C7.99041 17.7474 8.08575 17.6263 8.14205 17.4846C8.19835 17.3429 8.21308 17.1871 8.18438 17.0367C8.15568 16.8863 8.08483 16.7481 7.9808 16.6397C7.87678 16.5313 7.74424 16.4574 7.59995 16.4275C7.45566 16.3976 7.3061 16.4129 7.17018 16.4716C7.03426 16.5303 6.91809 16.6297 6.83636 16.7572C6.75462 16.8847 6.711 17.0346 6.711 17.1879C6.71123 17.3935 6.78967 17.5905 6.92912 17.7359C7.06856 17.8812 7.25763 17.963 7.45483 17.9632ZM7.45483 16.9295C7.50387 16.9295 7.55181 16.9446 7.59258 16.973C7.63336 17.0014 7.66514 17.0418 7.68391 17.089C7.70267 17.1362 7.70758 17.1882 7.69801 17.2383C7.68845 17.2885 7.66483 17.3345 7.63016 17.3707C7.59548 17.4068 7.5513 17.4314 7.50321 17.4414C7.45511 17.4514 7.40526 17.4462 7.35995 17.4267C7.31464 17.4071 7.27592 17.374 7.24867 17.3315C7.22143 17.289 7.20689 17.239 7.20689 17.1879C7.20696 17.1194 7.23311 17.0537 7.27959 17.0053C7.32607 16.9568 7.3891 16.9296 7.45483 16.9295Z" fill="white"/>
<path d="M15.1412 16.4126C14.9941 16.4126 14.8503 16.4581 14.7279 16.5433C14.6056 16.6285 14.5103 16.7495 14.454 16.8912C14.3977 17.0329 14.3829 17.1888 14.4116 17.3392C14.4403 17.4896 14.5112 17.6277 14.6152 17.7361C14.7192 17.8446 14.8518 17.9184 14.9961 17.9483C15.1404 17.9782 15.2899 17.9629 15.4258 17.9042C15.5618 17.8455 15.6779 17.7462 15.7597 17.6187C15.8414 17.4912 15.885 17.3413 15.885 17.1879C15.8848 16.9824 15.8064 16.7853 15.6669 16.6399C15.5275 16.4946 15.3384 16.4128 15.1412 16.4126ZM15.1412 17.4464C15.0921 17.4464 15.0442 17.4312 15.0034 17.4028C14.9627 17.3744 14.9309 17.334 14.9121 17.2868C14.8933 17.2396 14.8884 17.1876 14.898 17.1375C14.9076 17.0874 14.9312 17.0413 14.9659 17.0052C15.0005 16.969 15.0447 16.9444 15.0928 16.9344C15.1409 16.9245 15.1908 16.9296 15.2361 16.9491C15.2814 16.9687 15.3201 17.0018 15.3474 17.0443C15.3746 17.0868 15.3891 17.1368 15.3891 17.1879C15.3891 17.2564 15.3629 17.3221 15.3164 17.3706C15.27 17.419 15.2069 17.4463 15.1412 17.4464Z" fill="white"/>
<path d="M16.8768 15.1203C16.8766 14.9148 16.7981 14.7177 16.6587 14.5724C16.5192 14.427 16.3302 14.3453 16.133 14.345H8.19867V13.2947L15.4056 12.794C15.4591 12.7903 15.51 12.7686 15.5506 12.7322C15.5913 12.6959 15.6196 12.6467 15.6312 12.5922L16.623 7.94057C16.631 7.90279 16.6309 7.8636 16.6224 7.8259C16.614 7.78819 16.5976 7.75294 16.5744 7.72275C16.5511 7.69255 16.5217 7.66818 16.4882 7.65143C16.4547 7.63469 16.418 7.626 16.3809 7.62601H15.316L15.1399 5.79119C15.1338 5.72745 15.1051 5.66836 15.0596 5.62538C15.014 5.58241 14.9547 5.55861 14.8932 5.55861H14.1494V5.30019C14.1495 5.15049 14.108 5.00396 14.0299 4.87833C13.9517 4.7527 13.8404 4.65334 13.7092 4.59228C13.5781 4.53122 13.4328 4.51107 13.2909 4.53426C13.149 4.55745 13.0166 4.623 12.9097 4.72297C12.8027 4.623 12.6703 4.55745 12.5284 4.53426C12.3865 4.51107 12.2412 4.53122 12.1101 4.59228C11.9789 4.65334 11.8676 4.7527 11.7895 4.87833C11.7113 5.00396 11.6698 5.15049 11.6699 5.30019V5.55861H11.2369L11.1732 4.76189C11.168 4.69729 11.1398 4.63706 11.094 4.59317C11.0482 4.54927 10.9883 4.52491 10.9261 4.52492H10.1822V4.26649C10.1823 4.11679 10.1408 3.97026 10.0627 3.84463C9.98459 3.719 9.87323 3.61965 9.74209 3.55859C9.61095 3.49753 9.46564 3.47737 9.32374 3.50057C9.18184 3.52376 9.04942 3.5893 8.94251 3.68927C8.83559 3.5893 8.70318 3.52376 8.56128 3.50057C8.41938 3.47737 8.27407 3.49753 8.14292 3.55859C8.01178 3.61965 7.90042 3.719 7.82231 3.84463C7.74419 3.97026 7.70268 4.11679 7.70277 4.26649V4.52492H6.95893C6.89673 4.52491 6.8368 4.54927 6.79103 4.59317C6.74526 4.63706 6.71699 4.69729 6.71182 4.76189L6.54251 6.87981L6.05957 5.09022C6.01528 4.92777 5.92147 4.78475 5.79231 4.68277C5.66315 4.58078 5.50566 4.52538 5.34362 4.52492H2.74384C2.54656 4.52492 2.35736 4.6066 2.21787 4.75199C2.07837 4.89738 2 5.09457 2 5.30019C2 5.5058 2.07837 5.703 2.21787 5.84839C2.35736 5.99378 2.54656 6.07546 2.74384 6.07546H4.60133C4.65516 6.07564 4.70748 6.09399 4.75045 6.12777C4.79343 6.16155 4.82474 6.20893 4.8397 6.26282L6.71099 13.0891V15.5536C6.37673 15.7184 6.10167 15.9901 5.92586 16.3292C5.75004 16.6682 5.68264 17.0569 5.73346 17.4387C5.78429 17.8204 5.9507 18.1753 6.20845 18.4516C6.46621 18.728 6.80186 18.9114 7.16654 18.9751C7.53123 19.0388 7.90591 18.9796 8.23605 18.8059C8.56618 18.6323 8.83454 18.3534 9.00205 18.0099C9.16956 17.6663 9.22747 17.2759 9.16737 16.8956C9.10726 16.5154 8.93227 16.165 8.66788 15.8956H13.9281C13.6802 16.148 13.5105 16.472 13.4409 16.8259C13.3712 17.1798 13.4048 17.5472 13.5373 17.881C13.6698 18.2148 13.8951 18.4996 14.1843 18.6987C14.4735 18.8979 14.8132 19.0022 15.1598 18.9983C15.5063 18.9944 15.8439 18.8825 16.1288 18.6769C16.4138 18.4713 16.6332 18.1815 16.7588 17.8449C16.8844 17.5082 16.9103 17.14 16.8334 16.7878C16.7564 16.4356 16.5801 16.1155 16.327 15.8686C16.4847 15.824 16.6239 15.7266 16.7233 15.5913C16.8226 15.4561 16.8766 15.2906 16.8768 15.1203ZM12.3847 8.14285L12.2745 9.17655H10.5621L10.4576 8.14285H12.3847ZM14.3362 8.14285L14.1158 9.17655H12.7734L12.8836 8.14285H14.3362ZM10.2721 11.2439H9.13064L8.8176 9.6934H10.1156L10.2721 11.2439ZM10.6142 9.6934H12.2193L12.0542 11.2439H10.7711L10.6142 9.6934ZM10.3243 11.7608L10.4114 12.6229L9.42297 12.6916L9.23502 11.7608H10.3243ZM10.823 11.7608H11.9989L11.9193 12.5075L11.9767 12.5142L10.9066 12.5885L10.823 11.7608ZM12.4978 11.7608H13.5647L13.4255 12.4135L12.4208 12.4833L12.4978 11.7608ZM12.553 11.2439L12.7182 9.6934H14.0056L13.675 11.2439H12.553ZM9.95881 8.14285L10.0632 9.17655H8.71316L8.50435 8.14285H9.95881ZM7.99727 8.14285L8.20607 9.17655H7.16225L6.88331 8.14285H7.99727ZM8.31046 9.6934L8.62368 11.2439H7.72013L7.30172 9.6934H8.31046ZM8.72806 11.7608L8.9231 12.7263L8.13473 12.7812L7.8596 11.7608H8.72806ZM13.9411 12.3778L14.0727 11.7608H15.3003L15.1872 12.2911L13.9411 12.3778ZM15.3891 11.3448V11.2439H14.183L14.5136 9.6934H15.7412L15.3891 11.3448ZM15.8514 9.17655H14.6238L14.8442 8.14285H16.0718L15.8514 9.17655ZM14.8176 7.62601H14.3242L14.1754 6.07546H14.6688L14.8176 7.62601ZM13.4055 5.04176C13.4713 5.04184 13.5343 5.06909 13.5808 5.11754C13.6273 5.16599 13.6534 5.23167 13.6535 5.30019V5.55861H13.1576V5.30019C13.1577 5.23167 13.1838 5.16599 13.2303 5.11754C13.2768 5.06909 13.3398 5.04184 13.4055 5.04176ZM12.1658 5.30019C12.1658 5.23165 12.1919 5.16592 12.2384 5.11746C12.2849 5.06899 12.348 5.04176 12.4138 5.04176C12.4795 5.04176 12.5426 5.06899 12.5891 5.11746C12.6356 5.16592 12.6617 5.23165 12.6617 5.30019V5.55861H12.1658V5.30019ZM11.6699 6.07546V6.33389C11.6699 6.40242 11.696 6.46815 11.7425 6.51662C11.789 6.56508 11.8521 6.59231 11.9179 6.59231C11.9836 6.59231 12.0467 6.56508 12.0932 6.51662C12.1397 6.46815 12.1658 6.40242 12.1658 6.33389V6.07546H12.6617V6.33389C12.6617 6.40242 12.6878 6.46815 12.7343 6.51662C12.7808 6.56508 12.8439 6.59231 12.9097 6.59231C12.9754 6.59231 13.0385 6.56508 13.085 6.51662C13.1315 6.46815 13.1576 6.40242 13.1576 6.33389V6.07546H13.677L13.8258 7.62601H11.4021L11.2782 6.07546H11.6699ZM10.9045 7.62601H10.4104L10.2039 5.04176H10.6981L10.9045 7.62601ZM9.4384 4.00807C9.50414 4.00815 9.56716 4.0354 9.61364 4.08384C9.66013 4.13229 9.68627 4.19798 9.68635 4.26649V4.52492H9.19045V4.26649C9.19053 4.19798 9.21667 4.13229 9.26316 4.08384C9.30964 4.0354 9.37266 4.00815 9.4384 4.00807ZM8.19867 4.26649C8.19867 4.19795 8.22479 4.13222 8.27129 4.08376C8.31779 4.0353 8.38085 4.00807 8.44661 4.00807C8.51237 4.00807 8.57544 4.0353 8.62194 4.08376C8.66844 4.13222 8.69456 4.19795 8.69456 4.26649V4.52492H8.19867V4.26649ZM7.18708 5.04176H7.70277V5.30019C7.70277 5.36873 7.7289 5.43446 7.7754 5.48292C7.82189 5.53139 7.88496 5.55861 7.95072 5.55861C8.01648 5.55861 8.07955 5.53139 8.12605 5.48292C8.17254 5.43446 8.19867 5.36873 8.19867 5.30019V5.04176H8.69456V5.30019C8.69456 5.36873 8.72068 5.43446 8.76718 5.48292C8.81368 5.53139 8.87675 5.55861 8.94251 5.55861C9.00827 5.55861 9.07133 5.53139 9.11783 5.48292C9.16433 5.43446 9.19045 5.36873 9.19045 5.30019V5.04176H9.70615L9.91278 7.62601H6.98044L7.18708 5.04176ZM2.49589 5.30019C2.49597 5.23167 2.52211 5.16599 2.5686 5.11754C2.61508 5.06909 2.6781 5.04184 2.74384 5.04176H3.98357V5.55861H2.74384C2.6781 5.55854 2.61508 5.53128 2.5686 5.48284C2.52211 5.43439 2.49597 5.3687 2.49589 5.30019ZM8.69456 17.1877C8.69456 17.4433 8.62185 17.6931 8.48563 17.9056C8.3494 18.118 8.15578 18.2837 7.92925 18.3815C7.70272 18.4793 7.45345 18.5048 7.21297 18.455C6.97248 18.4051 6.75158 18.2821 6.5782 18.1014C6.40482 17.9207 6.28675 17.6904 6.23891 17.4398C6.19108 17.1891 6.21563 16.9293 6.30946 16.6932C6.4033 16.4571 6.56219 16.2553 6.76607 16.1133C6.96994 15.9714 7.20963 15.8956 7.45483 15.8956C7.78351 15.896 8.09863 16.0322 8.33104 16.2745C8.56346 16.5167 8.69419 16.8451 8.69456 17.1877ZM16.3809 17.1877C16.3809 17.4433 16.3082 17.6931 16.172 17.9056C16.0358 18.118 15.8421 18.2837 15.6156 18.3815C15.3891 18.4793 15.1398 18.5048 14.8993 18.455C14.6588 18.4051 14.4379 18.2821 14.2646 18.1014C14.0912 17.9207 13.9731 17.6904 13.9253 17.4398C13.8774 17.1891 13.902 16.9293 13.9958 16.6932C14.0896 16.4571 14.2485 16.2553 14.4524 16.1133C14.6563 15.9714 14.896 15.8956 15.1412 15.8956C15.4699 15.896 15.785 16.0322 16.0174 16.2745C16.2498 16.5167 16.3805 16.8451 16.3809 17.1877ZM16.133 15.3787H7.20688V13.0529C7.20688 13.0289 7.20367 13.005 7.19733 12.9818L5.31653 6.12069C5.27164 5.95901 5.17768 5.81685 5.04874 5.71551C4.9198 5.61418 4.76282 5.55913 4.60133 5.55861H4.47947V5.04176H5.34353C5.39755 5.04192 5.45005 5.06039 5.4931 5.09439C5.53615 5.12838 5.56742 5.17606 5.58218 5.23022L7.70277 13.0884V14.6035C7.70277 14.672 7.7289 14.7377 7.7754 14.7862C7.82189 14.8347 7.88496 14.8619 7.95072 14.8619H16.133C16.1987 14.8619 16.2618 14.8891 16.3083 14.9376C16.3548 14.986 16.3809 15.0518 16.3809 15.1203C16.3809 15.1888 16.3548 15.2546 16.3083 15.303C16.2618 15.3515 16.1987 15.3787 16.133 15.3787Z" fill="white"/>
</g>
</svg>
