<svg width="20" height="20" viewBox="0 0 20 20" fill="none" xmlns="http://www.w3.org/2000/svg">
<mask id="mask0" mask-type="alpha" maskUnits="userSpaceOnUse" x="0" y="0" width="20" height="20">
<circle cx="10" cy="10" r="10" fill="#E8ECF0"/>
</mask>
<g mask="url(#mask0)">
<circle cx="10" cy="10" r="10" fill="#FF8615"/>
<path d="M9.89768 10.8022C7.35928 10.8051 5.30227 12.7766 5.29926 15.2095C5.29926 17.6435 7.35806 19.6167 9.89768 19.6167C12.4373 19.6167 14.4961 17.6435 14.4961 15.2095C14.4961 12.7754 12.4373 10.8022 9.89768 10.8022ZM9.89768 19.0658C7.67549 19.0658 5.87406 17.3392 5.87406 15.2095C5.87406 13.0797 7.67549 11.3531 9.89768 11.3531C12.1189 11.3554 13.9189 13.0806 13.9213 15.2095C13.9213 17.3392 12.1199 19.0658 9.89768 19.0658Z" fill="white"/>
<path d="M4.72443 6.11963H3V6.66978H4.72443V6.11963Z" fill="white"/>
<path d="M3.39403 4.48678L3.18054 4.99756L4.61755 5.54766L4.83104 5.03689L3.39403 4.48678Z" fill="white"/>
<path d="M4.61746 7.24073L3.18073 7.79102L3.39376 8.30191L4.8305 7.75162L4.61746 7.24073Z" fill="white"/>
<path d="M16.7953 6.11963H15.0709V6.66978H16.7953V6.11963Z" fill="white"/>
<path d="M16.4012 4.4861L14.9641 5.03564L15.1774 5.54637L16.6145 4.99682L16.4012 4.4861Z" fill="white"/>
<path d="M15.1767 7.24169L14.9633 7.75244L16.4002 8.30252L16.6137 7.79177L15.1767 7.24169Z" fill="white"/>
<path d="M15.4781 13.0104C14.8653 11.585 13.6842 10.453 12.197 9.86566V8.32313C12.196 8.22128 12.1361 8.12842 12.0415 8.08211L13.2851 6.56519C13.2899 6.55913 13.2922 6.55225 13.2966 6.54591C13.3023 6.53923 13.3077 6.53224 13.3127 6.52498C13.3152 6.52029 13.3161 6.51506 13.3184 6.5101C13.3233 6.49936 13.3276 6.48831 13.331 6.47705C13.3354 6.46445 13.3388 6.45157 13.3411 6.43848C13.3429 6.42709 13.3439 6.41559 13.3443 6.40405C13.3453 6.39094 13.3453 6.37778 13.3443 6.36466C13.3429 6.35306 13.3407 6.34153 13.3377 6.33023C13.3345 6.31718 13.3302 6.30437 13.325 6.29194C13.3224 6.28616 13.3218 6.2801 13.319 6.27459C13.3161 6.26908 13.3118 6.26495 13.3086 6.25944C13.3055 6.25393 13.3035 6.2476 13.2997 6.24209L12.1501 4.58937C12.1433 4.5809 12.136 4.57281 12.1283 4.56513C12.1212 4.55649 12.1136 4.54823 12.1056 4.54034C12.0937 4.53012 12.0809 4.52092 12.0673 4.5128C12.0607 4.50867 12.0547 4.50343 12.0475 4.49985C12.0339 4.49331 12.0198 4.48787 12.0053 4.4836C11.9961 4.48057 11.9874 4.47671 11.9765 4.47451C11.9644 4.4722 11.9521 4.47072 11.9397 4.4701C11.9297 4.46845 11.9197 4.46735 11.9096 4.4668H7.88593C7.87587 4.4668 7.86667 4.46955 7.85719 4.47038C7.84436 4.4711 7.83157 4.47265 7.81896 4.47506C7.81005 4.47726 7.80172 4.48084 7.79281 4.4836C7.77797 4.48804 7.76357 4.49369 7.7497 4.5004C7.7428 4.50398 7.73705 4.50867 7.73044 4.5128C7.71668 4.52085 7.70368 4.53008 7.69164 4.54034C7.68367 4.54799 7.67627 4.55618 7.66951 4.56486C7.6615 4.57257 7.65403 4.58077 7.6471 4.58937L6.49749 6.24209C6.49375 6.2476 6.49203 6.25393 6.48858 6.25944C6.48513 6.26495 6.48082 6.26908 6.47823 6.27459C6.47565 6.2801 6.47478 6.28616 6.4722 6.29194C6.46699 6.30437 6.46275 6.31718 6.45955 6.33023C6.4565 6.34153 6.45427 6.35306 6.45294 6.36466C6.45147 6.37775 6.45096 6.3909 6.4515 6.40405C6.45183 6.41559 6.4529 6.42709 6.45466 6.43848C6.457 6.45157 6.46038 6.46445 6.46472 6.47705C6.46821 6.48831 6.47245 6.49936 6.47737 6.5101C6.47967 6.51506 6.48053 6.52029 6.48312 6.52498C6.48808 6.53224 6.49343 6.53923 6.49921 6.54591C6.50352 6.55225 6.50582 6.55913 6.51071 6.56519L7.7543 8.08211C7.65953 8.12832 7.59949 8.22125 7.59852 8.32313V9.86566C4.51661 11.0827 3.04759 14.4638 4.3174 17.4176C5.58721 20.3714 9.115 21.7793 12.197 20.5623C15.2789 19.3453 16.7479 15.9641 15.4781 13.0104ZM10.5766 8.9776L11.2643 6.67042H12.4677L10.5766 8.9776ZM11.6222 9.70039H10.7151L11.6181 8.59858L11.6222 9.70039ZM9.89774 9.24837L9.59942 8.24738L9.12923 6.67042H10.6663L10.5866 6.9376L9.89774 9.24837ZM11.9452 5.28985L12.5223 6.11951H11.5124L11.9452 5.28985ZM11.4445 5.0177L11.0117 5.84709L10.4346 5.0177H11.4445ZM10.5105 6.11951H9.285L9.89774 5.23806L10.5105 6.11951ZM9.36087 5.0177L8.78377 5.84709L8.35094 5.0177H9.36087ZM7.85029 5.28985L8.28312 6.11951H7.27319L7.85029 5.28985ZM7.32779 6.67042H8.53114L9.2189 8.9776L7.32779 6.67042ZM9.08037 9.70039H8.17333V8.59858L9.08037 9.70039ZM9.89975 20.445C6.88394 20.446 4.43822 18.1037 4.4371 15.2133C4.43624 12.9656 5.93289 10.9684 8.15551 10.2513H11.64C13.8637 10.9647 15.3615 12.962 15.3584 15.2094C15.3595 18.0999 12.9156 20.4439 9.89975 20.445Z" fill="white"/>
</g>
</svg>
