<svg width="20" height="20" viewBox="0 0 20 20" fill="none" xmlns="http://www.w3.org/2000/svg">
<mask id="mask0" mask-type="alpha" maskUnits="userSpaceOnUse" x="0" y="0" width="20" height="20">
<circle cx="10" cy="10" r="10" fill="#E8ECF0"/>
</mask>
<g mask="url(#mask0)">
<circle cx="10" cy="10" r="10" fill="#FF8615"/>
<path d="M12.9785 14.097C12.5366 14.097 12.1358 13.8401 11.9062 13.4096C11.82 13.248 11.6354 13.1967 11.4939 13.2952C11.3525 13.3936 11.3076 13.6045 11.3938 13.7661C11.5535 14.0654 11.7696 14.3072 12.0213 14.4801L11.7103 16.0916L10.9608 15.1059C11.0968 14.9272 11.064 14.7184 10.9468 14.602C10.8218 14.4779 10.6323 14.4929 10.5235 14.6357L9.99607 15.3285L8.66737 13.6424C8.78044 13.3944 8.84899 13.1222 8.86856 12.8385C11.4401 13.7031 14.0125 11.4865 14.0125 8.44169V5.60966C14.0125 5.42045 13.8781 5.26704 13.7125 5.26704C13.5468 5.26704 13.4125 5.42045 13.4125 5.60966V8.44169C13.4125 10.5907 11.8816 12.3391 9.99997 12.3391C8.1183 12.3391 6.58748 10.5907 6.58748 8.44169V5.53394C7.31884 5.48653 7.94093 4.9621 8.16262 4.01165C9.41175 4.92527 10.8119 5.5172 12.2813 5.75211C12.446 5.77832 12.5971 5.64714 12.62 5.46028C12.643 5.2729 12.5286 5.09971 12.3645 5.07345C10.8683 4.83426 9.40818 4.1947 8.1108 3.14575C7.91246 2.98531 7.63628 3.14853 7.63748 3.4276C7.63751 3.43613 7.6347 4.28588 7.07033 4.67365C6.71344 4.91889 6.35247 4.8397 6.29037 4.83892C6.13703 4.83725 6.00709 4.96865 5.98962 5.14198C5.98632 5.17513 5.98748 5.06227 5.98748 7.88368C5.78708 7.76496 5.64998 7.52872 5.64998 7.25684V3.08279C5.64998 2.63408 5.96959 2.26905 6.36248 2.26905C6.48514 2.26905 6.59547 2.18374 6.64103 2.05367C7.05083 0.883642 8.02853 0.127636 9.13192 0.127636H11.7047C13.184 0.127636 14.3875 1.50213 14.3875 3.19162V7.25684C14.3875 7.44606 14.5218 7.59947 14.6875 7.59947C14.8531 7.59947 14.9875 7.44606 14.9875 7.25684V3.19162C14.9875 1.12429 13.5148 -0.557617 11.7047 -0.557617H9.13192C7.84493 -0.557617 6.69754 0.283103 6.15874 1.60183C5.53145 1.714 5.04998 2.33539 5.04998 3.08279V7.25684C5.04998 7.91233 5.45153 8.46323 5.99052 8.61112C6.04651 10.361 6.96552 11.8636 8.27497 12.5787V12.6691C8.27497 13.0508 8.14462 13.4094 7.90796 13.679C7.48823 14.157 6.95929 14.097 7.02139 14.097C5.31005 14.097 3.92499 15.6787 3.92499 17.6334V19.6574C3.92499 19.8466 4.05931 20 4.22499 20C4.39066 20 4.52499 19.8466 4.52499 19.6574V17.6334C4.52499 16.0576 5.64154 14.7823 7.02147 14.7823C7.15275 14.7823 7.28381 14.7664 7.41341 14.7347L7.83203 16.9044C7.88501 17.1791 8.19019 17.2674 8.35151 17.0553L8.94255 16.2781L8.57734 19.6149C8.55679 19.8026 8.67345 19.9739 8.83781 19.9973C9.00251 20.0208 9.15217 19.8873 9.17272 19.6998L9.59478 15.8435C9.61387 15.8677 9.78063 16.0813 9.80201 16.1029C9.92583 16.227 10.1145 16.2144 10.2246 16.0726C10.2839 15.995 10.1304 16.1964 10.4045 15.8365L10.8273 19.6998C10.8478 19.8873 10.9974 20.0208 11.1622 19.9973C11.3266 19.9738 11.4432 19.8026 11.4227 19.6148L11.0575 16.278L11.6485 17.0553C11.8101 17.2678 12.1151 17.1786 12.168 16.9044L12.5866 14.7346C12.7137 14.7654 12.8447 14.7822 12.9785 14.7822C14.3583 14.7823 15.475 16.0574 15.475 17.6334V19.6574C15.475 19.8466 15.6093 20 15.775 20C15.9406 20 16.075 19.8466 16.075 19.6574V17.6334C16.075 15.6789 14.69 14.097 12.9785 14.097V14.097ZM8.2896 16.0916L7.97861 14.4797C8.09299 14.4008 8.20027 14.3069 8.29916 14.1994L9.02651 15.1225L8.2896 16.0916Z" fill="white"/>
</g>
</svg>
