<svg width="20" height="20" viewBox="0 0 20 20" fill="none" xmlns="http://www.w3.org/2000/svg">
<mask id="mask0" mask-type="alpha" maskUnits="userSpaceOnUse" x="0" y="0" width="20" height="20">
<circle cx="10" cy="10" r="10" fill="#E8ECF0"/>
</mask>
<g mask="url(#mask0)">
<circle cx="10" cy="10" r="10" fill="#FF8615"/>
<path d="M12.75 11.1777H7.25C7.1837 11.1777 7.12011 11.2068 7.07322 11.2585C7.02634 11.3102 7 11.3803 7 11.4534V16.8295C7.00026 17.0853 7.09254 17.3306 7.25657 17.5115C7.42061 17.6924 7.64302 17.7941 7.875 17.7944H12.125C12.357 17.7941 12.5794 17.6924 12.7434 17.5115C12.9075 17.3306 12.9997 17.0853 13 16.8295V11.4534C13 11.3803 12.9737 11.3102 12.9268 11.2585C12.8799 11.2068 12.8163 11.1777 12.75 11.1777ZM7.5 11.7291H12.5V12.8319H7.5V11.7291ZM12.125 17.243H7.875C7.77558 17.2429 7.68026 17.1993 7.60995 17.1218C7.53965 17.0443 7.50011 16.9391 7.5 16.8295V13.3833H12.5V16.8295C12.4999 16.9391 12.4603 17.0443 12.39 17.1218C12.3197 17.1993 12.2244 17.2429 12.125 17.243V17.243Z" fill="white"/>
<path d="M16.75 12.8319H15V6.76651H15.75C15.8163 6.76651 15.8799 6.73746 15.9268 6.68576C15.9737 6.63405 16 6.56393 16 6.49081V4.28523C16 4.21211 15.9737 4.14198 15.9268 4.09028C15.8799 4.03858 15.8163 4.00953 15.75 4.00953H14.25C14.25 3.93641 14.2237 3.86629 14.1768 3.81458C14.1299 3.76288 14.0663 3.73383 14 3.73383H13C12.9337 3.73383 12.8701 3.76288 12.8232 3.81458C12.7763 3.86629 12.75 3.93641 12.75 4.00953H12V3.87168C11.9997 3.61585 11.9075 3.37058 11.7434 3.18968C11.5794 3.00878 11.357 2.90702 11.125 2.90674H8.875C8.64301 2.90702 8.4206 3.00878 8.25656 3.18968C8.09253 3.37058 8.00026 3.61585 8 3.87168V4.00953H7.25C7.25 3.93641 7.22366 3.86629 7.17678 3.81458C7.12989 3.76288 7.0663 3.73383 7 3.73383H6C5.9337 3.73383 5.87011 3.76288 5.82322 3.81458C5.77634 3.86629 5.75 3.93641 5.75 4.00953H4.25C4.1837 4.00953 4.12011 4.03858 4.07322 4.09028C4.02634 4.14198 4 4.21211 4 4.28523V6.49081C4 6.56393 4.02634 6.63405 4.07322 6.68576C4.12011 6.73746 4.1837 6.76651 4.25 6.76651H5V12.8319H3.25C3.1837 12.8319 3.12011 12.8609 3.07322 12.9126C3.02634 12.9643 3 13.0344 3 13.1076V16.1402C3.00042 16.5788 3.15859 16.9993 3.43981 17.3094C3.72102 17.6195 4.1023 17.794 4.5 17.7944H5V18.3458C5.00042 18.7844 5.15859 19.2049 5.43981 19.515C5.72102 19.8251 6.1023 19.9995 6.5 20H13.5C13.8977 19.9995 14.279 19.8251 14.5602 19.515C14.8414 19.2049 14.9996 18.7844 15 18.3458V17.7944H15.5C15.8977 17.794 16.279 17.6195 16.5602 17.3094C16.8414 16.9993 16.9996 16.5788 17 16.1402V13.1076C17 13.0344 16.9737 12.9643 16.9268 12.9126C16.8799 12.8609 16.8163 12.8319 16.75 12.8319ZM5 17.243H4.5C4.23487 17.2427 3.98069 17.1264 3.79322 16.9197C3.60575 16.7129 3.5003 16.4326 3.5 16.1402V14.486H5V17.243ZM5 13.9346H3.5V13.3833H5V13.9346ZM13.25 4.28523H13.75V6.49081H13.25V4.28523ZM8.5 3.87168C8.50008 3.76203 8.53962 3.65689 8.60993 3.57936C8.68023 3.50182 8.77557 3.45823 8.875 3.45813H11.125C11.2244 3.45823 11.3198 3.50182 11.3901 3.57936C11.4604 3.65689 11.4999 3.76203 11.5 3.87168V4.00953H8.5V3.87168ZM7.25 4.56092H12.75V6.21511H7.25V4.56092ZM6.25 4.28523H6.75V6.49081H6.25V4.28523ZM4.5 6.21511V4.56092H5.75V6.21511H4.5ZM14.5 18.3458C14.4997 18.6382 14.3942 18.9185 14.2068 19.1252C14.0193 19.332 13.7651 19.4483 13.5 19.4486H6.5C6.23487 19.4483 5.98069 19.332 5.79322 19.1252C5.60575 18.9185 5.5003 18.6382 5.5 18.3458V6.76651H5.75C5.75 6.83963 5.77634 6.90975 5.82322 6.96145C5.87011 7.01316 5.9337 7.0422 6 7.0422H7C7.0663 7.0422 7.12989 7.01316 7.17678 6.96145C7.22366 6.90975 7.25 6.83963 7.25 6.76651H12.75C12.75 6.83963 12.7763 6.90975 12.8232 6.96145C12.8701 7.01316 12.9337 7.0422 13 7.0422H14C14.0663 7.0422 14.1299 7.01316 14.1768 6.96145C14.2237 6.90975 14.25 6.83963 14.25 6.76651H14.5V18.3458ZM14.25 6.21511V4.56092H15.5V6.21511H14.25ZM16.5 16.1402C16.4997 16.4326 16.3942 16.7129 16.2068 16.9197C16.0193 17.1264 15.7651 17.2427 15.5 17.243H15V14.486H16.5V16.1402ZM16.5 13.9346H15V13.3833H16.5V13.9346Z" fill="white"/>
<path d="M8.75 9.79881H11.25C11.3163 9.79881 11.3799 9.76976 11.4268 9.71806C11.4737 9.66636 11.5 9.59623 11.5 9.52312V7.86896C11.5 7.79584 11.4737 7.72571 11.4268 7.67401C11.3799 7.62231 11.3163 7.59326 11.25 7.59326H8.75C8.6837 7.59326 8.62011 7.62231 8.57322 7.67401C8.52634 7.72571 8.5 7.79584 8.5 7.86896V9.52312C8.5 9.59623 8.52634 9.66636 8.57322 9.71806C8.62011 9.76976 8.6837 9.79881 8.75 9.79881ZM9 8.14465H11V9.24742H9V8.14465Z" fill="white"/>
</g>
</svg>
