<svg width="20" height="20" viewBox="0 0 20 20" fill="none" xmlns="http://www.w3.org/2000/svg">
<mask id="mask0" mask-type="alpha" maskUnits="userSpaceOnUse" x="0" y="0" width="20" height="20">
<circle cx="10" cy="10" r="10" fill="#E8ECF0"/>
</mask>
<g mask="url(#mask0)">
<circle cx="10" cy="10" r="10" fill="#FF8615"/>
<path d="M12.9785 13.9362C12.5366 13.9362 12.1358 13.6723 11.9062 13.2301C11.82 13.064 11.6354 13.0114 11.4939 13.1125C11.3525 13.2137 11.3076 13.4302 11.3938 13.5962C11.5535 13.9038 11.7696 14.1521 12.0213 14.3298L11.7103 15.9852L10.9608 14.9725C11.0968 14.789 11.064 14.5746 10.9468 14.455C10.8218 14.3275 10.6323 14.3429 10.5235 14.4896L9.99607 15.2013L8.66737 13.4692C8.78044 13.2145 8.84899 12.9349 8.86856 12.6434C11.4401 13.5315 14.0125 11.2545 14.0125 8.1268V5.21762C14.0125 5.02325 13.8781 4.86566 13.7125 4.86566C13.5468 4.86566 13.4125 5.02325 13.4125 5.21762V8.1268C13.4125 10.3343 11.8816 12.1304 9.99997 12.1304C8.1183 12.1304 6.58748 10.3344 6.58748 8.1268V5.13984C7.31884 5.09114 7.94093 4.55242 8.16262 3.57608C9.41175 4.51458 10.8119 5.12264 12.2813 5.36395C12.446 5.39088 12.5971 5.25612 12.62 5.06417C12.643 4.87169 12.5286 4.69377 12.3645 4.6668C10.8683 4.42109 9.40818 3.76411 8.1108 2.68658C7.91246 2.52178 7.63628 2.68944 7.63748 2.97612C7.63751 2.98487 7.6347 3.85778 7.07033 4.25611C6.71344 4.50803 6.35247 4.42668 6.29037 4.42589C6.13703 4.42417 6.00709 4.55915 5.98962 4.7372C5.98632 4.77125 5.98748 4.65532 5.98748 7.55359C5.78708 7.43163 5.64998 7.18896 5.64998 6.90968V2.62191C5.64998 2.16097 5.96959 1.786 6.36248 1.786C6.48514 1.786 6.59547 1.69836 6.64103 1.56475C7.05083 0.362848 8.02853 -0.413754 9.13192 -0.413754H11.7047C13.184 -0.413754 14.3875 0.998182 14.3875 2.7337V6.90968C14.3875 7.10405 14.5218 7.26164 14.6875 7.26164C14.8531 7.26164 14.9875 7.10405 14.9875 6.90968V2.7337C14.9875 0.610057 13.5148 -1.11768 11.7047 -1.11768H9.13192C7.84493 -1.11768 6.69754 -0.254051 6.15874 1.1006C5.53145 1.21583 5.04998 1.85415 5.04998 2.62191V6.90968C5.04998 7.58302 5.45153 8.14893 5.99052 8.30085C6.04651 10.0984 6.96552 11.642 8.27497 12.3765V12.4693C8.27497 12.8615 8.14462 13.2299 7.90796 13.5068C7.48823 13.9978 6.95929 13.9362 7.02139 13.9362C5.31005 13.9362 3.92499 15.561 3.92499 17.5689V19.648C3.92499 19.8424 4.05931 20 4.22499 20C4.39066 20 4.52499 19.8424 4.52499 19.648V17.5689C4.52499 15.9501 5.64154 14.6401 7.02147 14.6401C7.15275 14.6401 7.28381 14.6238 7.41341 14.5913L7.83203 16.8201C7.88501 17.1023 8.19019 17.193 8.35151 16.9751L8.94255 16.1767L8.57734 19.6044C8.55679 19.7973 8.67345 19.9731 8.83781 19.9973C9.00251 20.0213 9.15217 19.8843 9.17272 19.6917L9.59478 15.7303C9.61387 15.7552 9.78063 15.9746 9.80201 15.9967C9.92583 16.1242 10.1145 16.1113 10.2246 15.9656C10.2839 15.8859 10.1304 16.0928 10.4045 15.7231L10.8273 19.6916C10.8478 19.8842 10.9974 20.0213 11.1622 19.9972C11.3266 19.9731 11.4432 19.7972 11.4227 19.6043L11.0575 16.1766L11.6485 16.9751C11.8101 17.1933 12.1151 17.1018 12.168 16.82L12.5866 14.5911C12.7137 14.6228 12.8447 14.6401 12.9785 14.6401C14.3583 14.6401 15.475 15.95 15.475 17.5689V19.648C15.475 19.8424 15.6093 20 15.775 20C15.9406 20 16.075 19.8424 16.075 19.648V17.5689C16.075 15.5611 14.69 13.9361 12.9785 13.9362V13.9362ZM8.2896 15.9852L7.97861 14.3293C8.09299 14.2482 8.20027 14.1518 8.29916 14.0414L9.02651 14.9896L8.2896 15.9852Z" fill="white"/>
</g>
</svg>
